<?xml version="1.0" encoding="UTF-8" standalone="no"?>
<svg
   xmlns:dc="http://purl.org/dc/elements/1.1/"
   xmlns:cc="http://creativecommons.org/ns#"
   xmlns:rdf="http://www.w3.org/1999/02/22-rdf-syntax-ns#"
   xmlns:svg="http://www.w3.org/2000/svg"
   xmlns="http://www.w3.org/2000/svg"
   xmlns:xlink="http://www.w3.org/1999/xlink"
   xmlns:sodipodi="http://sodipodi.sourceforge.net/DTD/sodipodi-0.dtd"
   xmlns:inkscape="http://www.inkscape.org/namespaces/inkscape"
   width="64"
   height="64"
   id="svg2424"
   sodipodi:version="0.32"
   inkscape:version="1.0.1 (3bc2e813f5, 2020-09-07)"
   version="1.0"
   sodipodi:docname="audio-volume-medium.svg"
   inkscape:output_extension="org.inkscape.output.svg.inkscape"
   inkscape:export-filename="/home/thayer/archlinux-logo-contest/archer-full-detail.png"
   inkscape:export-xdpi="90"
   inkscape:export-ydpi="90">
  <defs
     id="defs2426">
    <linearGradient
       gradientUnits="userSpaceOnUse"
       id="path1082_2_"
       y2="129.3468"
       x2="112.49853"
       y1="6.1372099"
       x1="112.49854"
       gradientTransform="translate(287,-83)">
      <stop
         id="stop193"
         offset="0"
         style="stop-color:#ffffff;stop-opacity:0" />
      <stop
         id="stop195"
         offset="1"
         style="stop-color:#ffffff;stop-opacity:0.27450982;" />
      <midPointStop
         id="midPointStop197"
         style="stop-color:#FFFFFF"
         offset="0" />
      <midPointStop
         id="midPointStop199"
         style="stop-color:#FFFFFF"
         offset="0.5" />
      <midPointStop
         id="midPointStop201"
         style="stop-color:#000000"
         offset="1" />
    </linearGradient>
    <linearGradient
       id="linearGradient3388">
      <stop
         style="stop-color:#000000;stop-opacity:0;"
         offset="0"
         id="stop3390" />
      <stop
         style="stop-color:#000000;stop-opacity:0.37113401;"
         offset="1"
         id="stop3392" />
    </linearGradient>
    <linearGradient
       inkscape:collect="always"
       id="linearGradient4346">
      <stop
         style="stop-color:#00bdec;stop-opacity:1"
         offset="0"
         id="stop4348" />
      <stop
         style="stop-color:#40bfde;stop-opacity:1"
         offset="1"
         id="stop4350" />
    </linearGradient>
    <linearGradient
       inkscape:collect="always"
       xlink:href="#linearGradient4346"
       id="linearGradient4352"
       x1="400.6142"
       y1="634.15063"
       x2="616.48553"
       y2="666.97791"
       gradientUnits="userSpaceOnUse" />
    <linearGradient
       inkscape:collect="always"
       id="linearGradient5323">
      <stop
         style="stop-color:#6e6e6e;stop-opacity:1"
         offset="0"
         id="stop5325" />
      <stop
         style="stop-color:#4d4d4d;stop-opacity:1"
         offset="1"
         id="stop5327" />
    </linearGradient>
    <linearGradient
       inkscape:collect="always"
       xlink:href="#linearGradient5323"
       id="linearGradient5329"
       x1="291.83591"
       y1="238.08237"
       x2="650.81366"
       y2="348.96875"
       gradientUnits="userSpaceOnUse" />
    <linearGradient
       inkscape:collect="always"
       xlink:href="#path1082_2_"
       id="linearGradient2216"
       gradientUnits="userSpaceOnUse"
       gradientTransform="matrix(-0.3937741,0,0,0.393752,978.34967,416.9815)"
       x1="541.33502"
       y1="104.50665"
       x2="606.91248"
       y2="303.14029" />
  </defs>
  <sodipodi:namedview
     id="base"
     pagecolor="#ffffff"
     bordercolor="#666666"
     borderopacity="1.0"
     gridtolerance="10000"
     guidetolerance="10"
     objecttolerance="10"
     inkscape:pageopacity="0.0"
     inkscape:pageshadow="2"
     inkscape:zoom="6.2434571"
     inkscape:cx="-7.9308842"
     inkscape:cy="31.443858"
     inkscape:document-units="px"
     inkscape:current-layer="g2424"
     inkscape:window-width="1920"
     inkscape:window-height="1054"
     inkscape:window-x="0"
     inkscape:window-y="0"
     showgrid="false"
     inkscape:window-maximized="1"
     showguides="true"
     inkscape:guide-bbox="true"
     inkscape:document-rotation="0">
    <sodipodi:guide
       position="-9.1314141,0"
       orientation="0,1"
       id="guide1583"
       inkscape:locked="false" />
    <sodipodi:guide
       position="-20.025031,64.080099"
       orientation="0,1"
       id="guide1585"
       inkscape:locked="false" />
  </sodipodi:namedview>
  <metadata
     id="metadata2429">
    <rdf:RDF>
      <cc:Work
         rdf:about="">
        <dc:format>image/svg+xml</dc:format>
        <dc:type
           rdf:resource="http://purl.org/dc/dcmitype/StillImage" />
        <dc:title />
      </cc:Work>
    </rdf:RDF>
  </metadata>
  <g
     inkscape:label="Layer 1"
     inkscape:groupmode="layer"
     id="layer1"
     transform="translate(-269.51781,-265.60124)">
    <g
       id="g2424"
       transform="matrix(1.3473684,0,0,1.3473684,-632.88236,-513.34366)">
      <path
         style="fill:#222222;fill-opacity:1;stroke-width:0.0692555"
         d="m 693.29831,579.60762 -6.94267,6.94265 -6.94266,6.94266 v 8.37861 8.37859 l 6.90855,6.93414 6.90855,6.93413 1.43595,0.0102 1.43765,0.0102 v -22.26562 -22.26563 h -1.40183 z m 9.4257,9.15114 c -0.0116,0.0141 -0.41844,0.59766 -0.90555,1.2978 -0.76893,1.10516 -0.87005,1.28304 -0.76743,1.34045 0.26564,0.14867 1.35433,1.10609 1.84011,1.61841 2.86046,3.01686 4.10082,7.37849 3.25731,11.45514 -0.33549,1.62143 -1.1899,3.59041 -2.13174,4.91664 -0.52451,0.73857 -2.144,2.40127 -2.69964,2.77127 -0.1992,0.13262 -0.34979,0.27702 -0.33426,0.32062 0.0155,0.0436 0.408,0.62889 0.87316,1.2995 0.46515,0.67063 0.85889,1.21936 0.87487,1.21936 0.10917,0 1.29785,-0.99035 1.95097,-1.62524 2.55736,-2.48585 4.08679,-5.46396 4.69495,-9.14432 0.17667,-1.0697 0.17776,-3.63153 0.002,-4.7103 -0.59508,-3.64638 -2.15475,-6.67891 -4.70518,-9.15114 -0.66519,-0.64479 -1.90235,-1.66501 -1.94927,-1.60819 z m -31.69133,4.76998 v 8.3445 8.34449 h 2.77126 2.76956 v -8.34449 -8.3445 h -2.76956 z m 30.71585,3.19591 -1.24664,0.79472 c -0.68555,0.43709 -1.27323,0.81964 -1.30463,0.85099 -0.0314,0.0314 0.0675,0.30201 0.21829,0.60201 0.91043,1.81132 0.91793,3.90956 0.0222,5.73353 l -0.32915,0.67022 1.28587,0.82541 c 0.70672,0.45347 1.30162,0.82418 1.32339,0.82712 0.0824,0.007 0.62363,-1.02697 0.86633,-1.65765 0.75419,-1.95965 0.85461,-4.19502 0.27798,-6.17523 -0.20598,-0.70741 -0.62373,-1.69145 -0.91068,-2.14709 z"
         id="path1656-3"
         inkscape:connector-curvature="0" />
    </g>
  </g>
</svg>
